HIERARCHY
ROOT Hips
{
    OFFSET 0.000000 0.000000 0.000000
    CHANNELS 6 Xposition Yposition Zposition Zrotation Xrotation Yrotation
    JOINT Spine
    {
        OFFSET -0.000000 6.993131 0.000000
        CHANNELS 3 Zrotation Xrotation Yrotation
        JOINT Spine1
        {
            OFFSET -0.000000 20.649729 0.000000
            CHANNELS 3 Zrotation Xrotation Yrotation
            JOINT Neck
            {
                OFFSET -0.000000 20.564924 1.869539
                CHANNELS 3 Zrotation Xrotation Yrotation
                JOINT Head
                {
                    OFFSET -0.000000 11.939490 -1.705642
                    CHANNELS 3 Zrotation Xrotation Yrotation
                    End Site
                    {
                        OFFSET -0.000000 21.320518 0.000000
                    }
                }
            }
            JOINT LeftShoulder
            {
                OFFSET 3.446977 19.850397 -0.038759
                CHANNELS 3 Zrotation Xrotation Yrotation
                JOINT LeftArm
                {
                    OFFSET 7.083611 0.000000 0.000000
                    CHANNELS 3 Zrotation Xrotation Yrotation
                    JOINT LeftForeArm
                    {
                        OFFSET 32.044487 0.000000 0.000000
                        CHANNELS 3 Zrotation Xrotation Yrotation
                        JOINT LeftHand
                        {
                            OFFSET 22.068741 0.000000 0.000000
                            CHANNELS 3 Zrotation Xrotation Yrotation
                            End Site
                            {
                                OFFSET 12.792312 0.000000 0.000000
                            }
                        }
                    }
                }
            }
            JOINT RightShoulder
            {
                OFFSET -3.365844 19.850397 -0.038759
                CHANNELS 3 Zrotation Xrotation Yrotation
                JOINT RightArm
                {
                    OFFSET -7.083611 0.000000 0.000000
                    CHANNELS 3 Zrotation Xrotation Yrotation
                    JOINT RightForeArm
                    {
                        OFFSET -32.044487 0.000000 0.000000
                        CHANNELS 3 Zrotation Xrotation Yrotation
                        JOINT RightHand
                        {
                            OFFSET -22.068741 0.000000 0.000000
                            CHANNELS 3 Zrotation Xrotation Yrotation
                            End Site
                            {
                                OFFSET -12.792312 0.000000 0.000000
                            }
                        }
                    }
                }
            }
        }
    }
    JOINT LeftUpLeg
    {
        OFFSET 8.528208 0.000000 0.000000
        CHANNELS 3 Zrotation Xrotation Yrotation
        JOINT LeftLeg
        {
            OFFSET -0.000000 -31.874865 0.000000
            CHANNELS 3 Zrotation Xrotation Yrotation
            JOINT LeftFoot
            {
                OFFSET -0.000000 -38.221939 0.000000
                CHANNELS 3 Zrotation Xrotation Yrotation
                JOINT LeftToeBase
                {
                    OFFSET -0.000000 -5.543335 12.792312
                    CHANNELS 3 Zrotation Xrotation Yrotation
                    End Site
                    {
                        OFFSET -0.000000 0.000000 3.411283
                    }
                }
            }
        }
    }
    JOINT RightUpLeg
    {
        OFFSET -8.528208 0.000000 0.000000
        CHANNELS 3 Zrotation Xrotation Yrotation
        JOINT RightLeg
        {
            OFFSET -0.000000 -31.874865 0.000000
            CHANNELS 3 Zrotation Xrotation Yrotation
            JOINT RightFoot
            {
                OFFSET -0.000000 -38.221939 0.000000
                CHANNELS 3 Zrotation Xrotation Yrotation
                JOINT RightToeBase
                {
                    OFFSET -0.000000 -5.543335 12.792312
                    CHANNELS 3 Zrotation Xrotation Yrotation
                    End Site
                    {
                        OFFSET -0.000000 0.000000 3.411283
                    }
                }
            }
        }
    }
}
MOTION
Frames:    7
Frame Time:    0.008333
36.028717    75.501442    25.607698    2.261283    1.382618    96.245140    -2.708502    -6.137302    1.704411    -5.104626    6.936699    2.159168    8.739827    15.468015    1.221867    -5.483599    -2.270339    0.316195    11.692794    4.337117    -4.469459    -32.935425    9.493783    -34.086586    75.094810    -50.232109    -66.819267    24.212217    5.575374    -0.774443    16.340860    10.676905    -8.075849    42.429340    56.568657    11.242472    -3.685407    -13.585416    32.081474    1.175956    -12.547928    0.510422    -5.004523    -2.353135    -0.477991    4.718961    16.418650    -3.029805    -1.926789    -11.325198    -1.632964    0.000000    0.000000    0.000000    -9.918837    2.997437    0.275520    9.302613    10.828044    -1.471921    -4.070309    -10.275336    -7.991935    0.000000    0.000000    0.000000    
35.912125    75.477875    25.557550    2.023581    1.611056    96.017387    -2.959948    -6.179437    1.881941    -5.011621    6.731049    2.336647    8.622151    15.437013    1.194282    -5.422915    -2.214494    0.298299    11.427938    4.345944    -4.586382    -32.118256    9.450098    -34.701668    75.262901    -49.773537    -66.920555    23.953884    6.377788    -2.177555    16.213198    10.666846    -8.095698    42.450798    56.590580    11.241869    -3.692151    -13.532845    32.071762    1.232488    -12.492664    0.575280    -5.342069    -2.670632    -0.346143    4.778115    16.454739    -2.913141    -1.991660    -11.180924    -1.678105    0.000000    0.000000    0.000000    -10.315338    2.448294    0.371754    9.437947    11.201599    -1.213955    -4.256985    -10.500133    -8.193233    0.000000    0.000000    0.000000    
35.930767    75.485695    25.566271    2.098511    1.518334    96.257324    -2.970849    -6.224399    1.824366    -4.865526    6.878886    2.278514    8.626582    15.385371    1.144857    -5.496655    -2.169777    0.232778    11.412470    4.236599    -4.760615    -31.534752    9.485342    -35.157425    75.799622    -49.375908    -66.699341    23.434174    7.188023    -3.340606    16.127308    10.655437    -8.103325    42.293564    56.467690    11.422722    -3.481207    -13.317994    32.017033    1.197273    -12.336383    0.748081    -5.213988    -2.596698    -0.494670    4.750295    16.454056    -3.024226    -1.947562    -11.234818    -1.641397    0.000000    0.000000    0.000000    -10.167290    2.651080    0.239501    9.400235    11.080561    -1.310845    -4.199299    -10.407779    -8.159089    0.000000    0.000000    0.000000    
35.915863    75.482117    25.566769    2.104312    1.524227    96.348297    -3.110242    -6.250615    1.864370    -4.705155    6.930257    2.319240    8.670131    15.318463    1.079189    -5.531871    -2.121962    0.155079    11.519217    4.079634    -4.970587    -31.274406    9.305013    -35.673210    75.974136    -48.864479    -66.901421    22.998280    8.304739    -4.452567    16.095507    10.579065    -8.179809    42.191479    56.575256    11.455974    -3.477476    -13.261106    32.055817    1.179732    -12.279183    0.748102    -5.215162    -2.602188    -0.533454    4.752462    16.442116    -3.031746    -1.964341    -11.240038    -1.709168    0.000000    0.000000    0.000000    -10.170915    2.659886    0.280520    9.430077    11.087635    -1.410437    -4.205352    -10.420140    -8.195049    0.000000    0.000000    0.000000    
35.881733    75.486458    25.567350    2.109294    1.536775    96.404373    -3.219772    -6.207283    1.892130    -4.571888    6.897098    2.342380    8.643548    15.277278    1.049119    -5.546781    -2.103076    0.119134    11.695984    3.884316    -5.200056    -30.769363    9.655628    -35.933960    77.185249    -48.541977    -65.945007    22.788485    8.874588    -5.467885    16.028419    10.550151    -8.219296    42.090027    56.684052    11.543432    -3.560514    -13.267293    32.059536    1.289706    -12.260848    0.782619    -5.222361    -2.646268    -0.470198    4.768645    16.470716    -3.141419    -1.961043    -11.190676    -1.712472    0.000000    0.000000    0.000000    -10.185395    2.622795    0.315178    9.451344    11.128557    -1.444943    -4.213788    -10.402436    -8.256398    0.000000    0.000000    0.000000    
35.859440    75.489189    25.571030    2.094354    1.542343    96.493027    -3.341882    -6.196402    1.883239    -4.410207    6.863681    2.328740    8.562873    15.259996    1.027899    -5.526667    -2.109840    0.099313    11.844137    3.689419    -5.408594    -30.617008    9.473420    -36.179947    77.435173    -48.201084    -65.975838    22.466911    9.670578    -6.143203    15.956755    10.529440    -8.241449    41.989143    56.787788    11.623281    -3.609342    -13.223384    32.071152    1.239519    -12.203685    0.715982    -5.215364    -2.682977    -0.506740    4.755754    16.476406    -3.200767    -1.951147    -11.169299    -1.705215    0.000000    0.000000    0.000000    -10.187240    2.596595    0.319141    9.470860    11.157646    -1.444353    -4.222725    -10.409295    -8.356291    0.000000    0.000000    0.000000    
35.842590    75.488632    25.573645    2.088296    1.553769    96.555031    -3.504890    -6.223429    1.901989    -4.194288    6.909501    2.345886    8.543992    15.151064    0.990520    -5.594058    -2.027399    0.044887    11.902040    3.541094    -5.627118    -30.254259    9.526489    -36.449860    78.486389    -47.895741    -65.128479    22.112228    10.290447    -6.414382    15.876360    10.476600    -8.319258    41.795891    56.944500    11.778741    -3.702588    -13.216526    32.098660    1.224001    -12.170569    0.632173    -5.213363    -2.692580    -0.510417    4.743613    16.449308    -3.207525    -1.935283    -11.149897    -1.758816    0.000000    0.000000    0.000000    -10.192048    2.581538    0.326436    9.478992    11.173501    -1.504313    -3.874616    -10.376145    -8.377732    0.000000    0.000000    0.000000    
